<svg xmlns="http://www.w3.org/2000/svg" viewBox="0 0 32 32">
  <rect width="32" height="32" rx="8" fill="#2D1810"/>
  <path fill="#CD853F" d="M9 10h11c0 4.5-2.5 7.5-5.5 7.5S9 14.5 9 10z"/>
  <path fill="#F5F5DC" d="M10 11h9v5c0 2.2-2 4-4.5 4S10 18.2 10 16v-5z"/>
  <path fill="none" stroke="#F5F5DC" stroke-width="1.2" stroke-linecap="round" d="M21 12h2.5a2 2 0 0 1 0 4H21"/>
  <path fill="none" stroke="#D2B48C" stroke-width="1" stroke-linecap="round" d="M12 7s1-2 2.5-2 2.5 2 2.5 2M15 6s.5-1.5 2-1.5 2.5 1.5 2.5 1.5"/>
</svg>
